<svg width="312" height="142" viewBox="0 0 312 142" fill="none" xmlns="http://www.w3.org/2000/svg">
<g filter="url(#filter0_d_1_1183)">
<path d="M44 49C44 34.0883 56.0883 22 71 22L241 22C255.912 22 268 34.0883 268 49C268 63.9117 255.912 76 241 76L71 76C56.0883 76 44 63.9117 44 49Z" fill="white"/>
<path d="M47 49C47 35.7452 57.7452 25 71 25L241 25C254.255 25 265 35.7452 265 49C265 62.2548 254.255 73 241 73L71 73C57.7452 73 47 62.2548 47 49Z" stroke="#3C3A3A" stroke-width="6"/>
</g>
<defs>
<filter id="filter0_d_1_1183" x="0" y="0" width="312" height="142" filterUnits="userSpaceOnUse" color-interpolation-filters="sRGB">
<feFlood flood-opacity="0" result="BackgroundImageFix"/>
<feColorMatrix in="SourceAlpha" type="matrix" values="0 0 0 0 0 0 0 0 0 0 0 0 0 0 0 0 0 0 127 0" result="hardAlpha"/>
<feOffset dy="22"/>
<feGaussianBlur stdDeviation="22"/>
<feComposite in2="hardAlpha" operator="out"/>
<feColorMatrix type="matrix" values="0 0 0 0 0.416667 0 0 0 0 0.413195 0 0 0 0 0.407986 0 0 0 0.25 0"/>
<feBlend mode="normal" in2="BackgroundImageFix" result="effect1_dropShadow_1_1183"/>
<feBlend mode="normal" in="SourceGraphic" in2="effect1_dropShadow_1_1183" result="shape"/>
</filter>
</defs>
</svg>
