<svg width="398" height="127" viewBox="0 0 398 127" fill="none" xmlns="http://www.w3.org/2000/svg">
<g filter="url(#filter0_d_1_1548)">
<path d="M40 53.4951C40 40.5191 50.5191 30 63.4951 30L333.881 30C346.857 30 357.376 40.5191 357.376 53.4951C357.376 66.4711 346.857 76.9902 333.881 76.9902L63.4951 76.9902C50.5191 76.9902 40 66.4711 40 53.4951Z" fill="#3C3A3A"/>
<path d="M43 53.4951C43 42.176 52.176 33 63.4951 33L333.881 33C345.2 33 354.376 42.176 354.376 53.4951C354.376 64.8142 345.2 73.9902 333.881 73.9902L63.4951 73.9902C52.176 73.9902 43 64.8142 43 53.4951Z" stroke="white" stroke-width="6"/>
</g>
<defs>
<filter id="filter0_d_1_1548" x="0" y="0" width="397.376" height="126.99" filterUnits="userSpaceOnUse" color-interpolation-filters="sRGB">
<feFlood flood-opacity="0" result="BackgroundImageFix"/>
<feColorMatrix in="SourceAlpha" type="matrix" values="0 0 0 0 0 0 0 0 0 0 0 0 0 0 0 0 0 0 127 0" result="hardAlpha"/>
<feOffset dy="10"/>
<feGaussianBlur stdDeviation="20"/>
<feComposite in2="hardAlpha" operator="out"/>
<feColorMatrix type="matrix" values="0 0 0 0 0.416667 0 0 0 0 0.413195 0 0 0 0 0.407986 0 0 0 0.3 0"/>
<feBlend mode="normal" in2="BackgroundImageFix" result="effect1_dropShadow_1_1548"/>
<feBlend mode="normal" in="SourceGraphic" in2="effect1_dropShadow_1_1548" result="shape"/>
</filter>
</defs>
</svg>
