<svg width="24" height="25" viewBox="0 0 24 25" fill="none" xmlns="http://www.w3.org/2000/svg">
<g clip-path="url(#clip0_1_1414)">
<path fill-rule="evenodd" clip-rule="evenodd" d="M0.489746 8.82222C0.489746 5.10904 3.68084 2.25 7.42648 2.25C9.35728 2.25 11.0563 3.17419 12.2755 4.37002C13.4947 3.17419 15.1936 2.25 17.1244 2.25C20.8701 2.25 24.0612 5.10904 24.0612 8.82222C24.0612 11.3658 22.9986 13.6026 21.5265 15.4934C20.0569 17.3809 18.1346 18.9828 16.294 20.2845C15.591 20.7816 14.8798 21.2403 14.2289 21.5787C13.6177 21.8964 12.9149 22.1875 12.2755 22.1875C11.636 22.1875 10.9332 21.8964 10.322 21.5787C9.67113 21.2403 8.95992 20.7816 8.25691 20.2845C6.41634 18.9828 4.49402 17.3809 3.02444 15.4934C1.55232 13.6026 0.489746 11.3658 0.489746 8.82222ZM7.42648 4.3125C4.62586 4.3125 2.51015 6.41501 2.51015 8.82222C2.51015 10.752 3.31264 12.5487 4.60611 14.21C5.90213 15.8746 7.64593 17.3433 9.40748 18.5891C10.074 19.0605 10.7019 19.4616 11.2389 19.7408C11.8157 20.0406 12.1497 20.125 12.2755 20.125C12.4012 20.125 12.7352 20.0406 13.312 19.7408C13.849 19.4616 14.4769 19.0605 15.1434 18.5891C16.905 17.3433 18.6488 15.8746 19.9448 14.21C21.2383 12.5487 22.0408 10.752 22.0408 8.82222C22.0408 6.41501 19.9251 4.3125 17.1244 4.3125C15.516 4.3125 14.0141 5.29346 13.0763 6.53852C12.8851 6.7924 12.5892 6.94118 12.2755 6.94118C11.9617 6.94118 11.6658 6.7924 11.4746 6.53852C10.5368 5.29346 9.03493 4.3125 7.42648 4.3125Z" fill="white"/>
</g>
<defs>
<clipPath id="clip0_1_1414">
<rect width="24" height="25" fill="white"/>
</clipPath>
</defs>
</svg>
