<svg width="28" height="27" viewBox="0 0 28 27" fill="none" xmlns="http://www.w3.org/2000/svg">
<path fill-rule="evenodd" clip-rule="evenodd" d="M12.0818 4.60012C12.8359 3.30061 14.7125 3.30061 15.4666 4.60012L17.7758 8.57979C17.9887 8.94662 18.3566 9.19695 18.7759 9.26029L22.6106 9.83946C24.2821 10.0919 24.8684 12.2024 23.5667 13.2809L20.7727 15.5957C20.3805 15.9206 20.1961 16.4331 20.2914 16.9334L21.074 21.0434C21.3806 22.6534 19.6905 23.9043 18.2403 23.1407L14.4253 21.132C14.0178 20.9174 13.5306 20.9174 13.123 21.132L9.3081 23.1407C7.85793 23.9043 6.1678 22.6534 6.47438 21.0434L7.25702 16.9334C7.35228 16.4331 7.16788 15.9206 6.77572 15.5957L3.98174 13.2809C2.67997 12.2024 3.2663 10.0919 4.93783 9.83946L8.77247 9.26029C9.19182 9.19695 9.55973 8.94662 9.77258 8.57979L12.0818 4.60012ZM14.016 5.44185C13.9082 5.25621 13.6402 5.25621 13.5324 5.44185L11.2232 9.42152C10.7549 10.2285 9.94551 10.7793 9.02294 10.9186L5.1883 11.4978C4.94951 11.5339 4.86575 11.8353 5.05171 11.9894L7.8457 14.3042C8.70845 15.019 9.11412 16.1465 8.90454 17.2471L8.1219 21.3571C8.0781 21.5871 8.31955 21.7658 8.52672 21.6567L12.3417 19.648C13.2383 19.1759 14.3101 19.1759 15.2067 19.648L19.0217 21.6567C19.2288 21.7658 19.4703 21.5871 19.4265 21.3571L18.6439 17.2471C18.4343 16.1465 18.8399 15.019 19.7027 14.3042L22.4967 11.9894C22.6826 11.8353 22.5989 11.5339 22.3601 11.4978L18.5255 10.9186C17.6029 10.7793 16.7935 10.2285 16.3252 9.42152L14.016 5.44185Z" fill="#FFCF53"/>
</svg>
