<svg width="17" height="18" viewBox="0 0 17 18" fill="none" xmlns="http://www.w3.org/2000/svg">
<path fill-rule="evenodd" clip-rule="evenodd" d="M5.30696 5.83064V5.74921C5.30696 4.27675 6.30385 2.99108 7.72992 2.62438C8.25704 2.48883 8.80987 2.48883 9.33698 2.62438C10.7631 2.99108 11.7599 4.27675 11.7599 5.74921V5.83064H12.7796C13.1677 5.83064 13.497 6.11524 13.5532 6.49919L13.7018 7.51296C13.9942 9.50894 13.9942 11.5369 13.7018 13.5329C13.5606 14.4968 12.7833 15.242 11.8143 15.3424L11.3871 15.3867C9.48976 15.5835 7.57714 15.5835 5.67978 15.3867L5.25262 15.3424C4.28362 15.242 3.50635 14.4968 3.36512 13.5329C3.07267 11.5369 3.07267 9.50894 3.36512 7.51295L3.51366 6.49919C3.56991 6.11524 3.89925 5.83064 4.2873 5.83064H5.30696ZM7.98367 3.61117C8.34433 3.51843 8.72258 3.51843 9.08324 3.61117C10.059 3.86207 10.7411 4.74174 10.7411 5.74921V5.83064H6.32585V5.74921C6.32585 4.74174 7.00794 3.86207 7.98367 3.61117ZM5.30696 6.84953V8.37787C5.30696 8.65923 5.53505 8.88732 5.81641 8.88732C6.09776 8.88732 6.32585 8.65923 6.32585 8.37787V6.84953H10.7411V8.37787C10.7411 8.65923 10.9691 8.88732 11.2505 8.88732C11.5319 8.88732 11.7599 8.65923 11.7599 8.37787V6.84953H12.5748L12.6937 7.66067C12.9718 9.5587 12.9718 11.4871 12.6937 13.3852C12.62 13.8879 12.2146 14.2766 11.7092 14.329L11.282 14.3733C9.45454 14.5628 7.61236 14.5628 5.78488 14.3733L5.35772 14.329C4.85232 14.2766 4.44691 13.8879 4.37325 13.3852C4.09515 11.4871 4.09515 9.5587 4.37325 7.66067L4.4921 6.84953H5.30696Z" fill="black"/>
</svg>
