<svg width="27" height="27" viewBox="0 0 27 27" fill="none" xmlns="http://www.w3.org/2000/svg">
<path fill-rule="evenodd" clip-rule="evenodd" d="M11.7425 4.60012C12.4966 3.30061 14.3732 3.30061 15.1272 4.60012L17.4365 8.57979C17.6493 8.94662 18.0172 9.19695 18.4366 9.26029L22.2712 9.83946C23.9428 10.0919 24.5291 12.2024 23.2273 13.2809L20.4333 15.5957C20.0412 15.9206 19.8568 16.4331 19.9521 16.9334L20.7347 21.0434C21.0413 22.6534 19.3511 23.9043 17.901 23.1407L14.086 21.132C13.6784 20.9174 13.1913 20.9174 12.7837 21.132L8.96877 23.1407C7.5186 23.9043 5.82847 22.6534 6.13505 21.0434L6.91769 16.9334C7.01295 16.4331 6.82856 15.9206 6.4364 15.5957L3.64241 13.2809C2.34064 12.2024 2.92697 10.0919 4.5985 9.83946L8.43314 9.26029C8.8525 9.19695 9.2204 8.94662 9.43326 8.57979L11.7425 4.60012ZM13.6766 5.44185C13.5689 5.25621 13.3008 5.25621 13.1931 5.44185L10.8839 9.42152C10.4156 10.2285 9.60619 10.7793 8.68361 10.9186L4.84897 11.4978C4.61018 11.5339 4.52642 11.8353 4.71239 11.9894L7.50638 14.3042C8.36913 15.019 8.77479 16.1465 8.56522 17.2471L7.78258 21.3571C7.73878 21.5871 7.98023 21.7658 8.1874 21.6567L12.0023 19.648C12.899 19.1759 13.9707 19.1759 14.8674 19.648L18.6824 21.6567C18.8895 21.7658 19.131 21.5871 19.0872 21.3571L18.3045 17.2471C18.095 16.1465 18.5006 15.019 19.3634 14.3042L22.1574 11.9894C22.3433 11.8353 22.2596 11.5339 22.0208 11.4978L18.1861 10.9186C17.2636 10.7793 16.4542 10.2285 15.9859 9.42152L13.6766 5.44185Z" fill="#FFCF53"/>
</svg>
