<svg width="27" height="27" viewBox="0 0 27 27" fill="none" xmlns="http://www.w3.org/2000/svg">
<path fill-rule="evenodd" clip-rule="evenodd" d="M8.71875 8.4375C8.71875 5.79689 10.8594 3.65625 13.5 3.65625C16.1406 3.65625 18.2812 5.79689 18.2812 8.4375C18.2812 11.0781 16.1406 13.2188 13.5 13.2188C10.8594 13.2188 8.71875 11.0781 8.71875 8.4375ZM13.5 5.34375C11.7914 5.34375 10.4062 6.72887 10.4062 8.4375C10.4062 10.1461 11.7914 11.5312 13.5 11.5312C15.2086 11.5312 16.5938 10.1461 16.5938 8.4375C16.5938 6.72887 15.2086 5.34375 13.5 5.34375Z" fill="white"/>
<path fill-rule="evenodd" clip-rule="evenodd" d="M9 16.5938C7.60203 16.5938 6.46875 17.727 6.46875 19.125V20.4618C6.46875 20.4822 6.4835 20.4995 6.50359 20.5028C11.1372 21.2593 15.8628 21.2593 20.4964 20.5028C20.5165 20.4995 20.5312 20.4822 20.5312 20.4618V19.125C20.5312 17.727 19.398 16.5938 18 16.5938H17.6165C17.5869 16.5938 17.5574 16.5984 17.5292 16.6076L16.5555 16.9256C14.5701 17.5739 12.4299 17.5739 10.4445 16.9256L9.47078 16.6076C9.44259 16.5984 9.41313 16.5938 9.38348 16.5938H9ZM4.78125 19.125C4.78125 16.795 6.67005 14.9062 9 14.9062H9.38348C9.59103 14.9062 9.79728 14.9391 9.99458 15.0035L10.9683 15.3214C12.6134 15.8586 14.3866 15.8586 16.0317 15.3214L17.0054 15.0035C17.2027 14.9391 17.409 14.9062 17.6165 14.9062H18C20.33 14.9062 22.2188 16.795 22.2188 19.125V20.4618C22.2188 21.3092 21.6046 22.0317 20.7683 22.1683C15.9546 22.9542 11.0454 22.9542 6.23168 22.1683C5.39537 22.0317 4.78125 21.3092 4.78125 20.4618V19.125Z" fill="white"/>
</svg>
