<svg width="28" height="27" viewBox="0 0 28 27" fill="none" xmlns="http://www.w3.org/2000/svg">
<path fill-rule="evenodd" clip-rule="evenodd" d="M12.4032 4.60012C13.1573 3.30061 15.0339 3.30061 15.788 4.60012L18.0972 8.57979C18.3101 8.94662 18.678 9.19695 19.0973 9.26029L22.932 9.83946C24.6035 10.0919 25.1898 12.2024 23.8881 13.2809L21.0941 15.5957C20.7019 15.9206 20.5175 16.4331 20.6128 16.9334L21.3954 21.0434C21.702 22.6534 20.0119 23.9043 18.5617 23.1407L14.7468 21.132C14.3392 20.9174 13.852 20.9174 13.4445 21.132L9.62952 23.1407C8.17935 23.9043 6.48922 22.6534 6.79579 21.0434L7.57843 16.9334C7.6737 16.4331 7.4893 15.9206 7.09714 15.5957L4.30316 13.2809C3.00139 12.2024 3.58771 10.0919 5.25925 9.83946L9.09389 9.26029C9.51324 9.19695 9.88115 8.94662 10.094 8.57979L12.4032 4.60012ZM14.3374 5.44185C14.2297 5.25621 13.9616 5.25621 13.8538 5.44185L11.5446 9.42152C11.0763 10.2285 10.2669 10.7793 9.34436 10.9186L5.50972 11.4978C5.27092 11.5339 5.18717 11.8353 5.37313 11.9894L8.16712 14.3042C9.02987 15.019 9.43554 16.1465 9.22596 17.2471L8.44332 21.3571C8.39952 21.5871 8.64097 21.7658 8.84814 21.6567L12.6631 19.648C13.5598 19.1759 14.6315 19.1759 15.5281 19.648L19.3431 21.6567C19.5503 21.7658 19.7917 21.5871 19.7479 21.3571L18.9653 17.2471C18.7557 16.1465 19.1614 15.019 20.0241 14.3042L22.8181 11.9894C23.0041 11.8353 22.9203 11.5339 22.6815 11.4978L18.8469 10.9186C17.9243 10.7793 17.1149 10.2285 16.6466 9.42152L14.3374 5.44185Z" fill="#FFCF53"/>
</svg>
