<svg width="28" height="27" viewBox="0 0 28 27" fill="none" xmlns="http://www.w3.org/2000/svg">
<path fill-rule="evenodd" clip-rule="evenodd" d="M12.064 4.60012C12.818 3.30061 14.6947 3.30061 15.4487 4.60012L17.758 8.57979C17.9708 8.94662 18.3387 9.19695 18.7581 9.26029L22.5927 9.83946C24.2643 10.0919 24.8506 12.2024 23.5488 13.2809L20.7548 15.5957C20.3627 15.9206 20.1783 16.4331 20.2735 16.9334L21.0562 21.0434C21.3628 22.6534 19.6726 23.9043 18.2225 23.1407L14.4075 21.132C13.9999 20.9174 13.5128 20.9174 13.1052 21.132L9.29026 23.1407C7.84009 23.9043 6.14996 22.6534 6.45654 21.0434L7.23918 16.9334C7.33444 16.4331 7.15005 15.9206 6.75789 15.5957L3.9639 13.2809C2.66213 12.2024 3.24846 10.0919 4.91999 9.83946L8.75463 9.26029C9.17398 9.19695 9.54189 8.94662 9.75474 8.57979L12.064 4.60012ZM13.9981 5.44185C13.8904 5.25621 13.6223 5.25621 13.5146 5.44185L11.2053 9.42152C10.7371 10.2285 9.92768 10.7793 9.0051 10.9186L5.17046 11.4978C4.93167 11.5339 4.84791 11.8353 5.03387 11.9894L7.82786 14.3042C8.69061 15.019 9.09628 16.1465 8.8867 17.2471L8.10406 21.3571C8.06027 21.5871 8.30171 21.7658 8.50888 21.6567L12.3238 19.648C13.2205 19.1759 14.2922 19.1759 15.1889 19.648L19.0038 21.6567C19.211 21.7658 19.4525 21.5871 19.4087 21.3571L18.626 17.2471C18.4164 16.1465 18.8221 15.019 19.6849 14.3042L22.4788 11.9894C22.6648 11.8353 22.581 11.5339 22.3423 11.4978L18.5076 10.9186C17.585 10.7793 16.7756 10.2285 16.3074 9.42152L13.9981 5.44185Z" fill="#FFCF53"/>
</svg>
