<svg width="27" height="27" viewBox="0 0 27 27" fill="none" xmlns="http://www.w3.org/2000/svg">
<path fill-rule="evenodd" clip-rule="evenodd" d="M11.7247 4.60012C12.4787 3.30061 14.3554 3.30061 15.1094 4.60012L17.4186 8.57979C17.6315 8.94662 17.9994 9.19695 18.4188 9.26029L22.2534 9.83946C23.9249 10.0919 24.5113 12.2024 23.2095 13.2809L20.4155 15.5957C20.0233 15.9206 19.839 16.4331 19.9342 16.9334L20.7169 21.0434C21.0234 22.6534 19.3333 23.9043 17.8831 23.1407L14.0682 21.132C13.6606 20.9174 13.1735 20.9174 12.7659 21.132L8.95094 23.1407C7.50076 23.9043 5.81064 22.6534 6.11721 21.0434L6.89985 16.9334C6.99512 16.4331 6.81072 15.9206 6.41856 15.5957L3.62457 13.2809C2.3228 12.2024 2.90913 10.0919 4.58067 9.83946L8.41531 9.26029C8.83466 9.19695 9.20256 8.94662 9.41542 8.57979L11.7247 4.60012ZM13.6588 5.44185C13.5511 5.25621 13.283 5.25621 13.1753 5.44185L10.866 9.42152C10.3977 10.2285 9.58835 10.7793 8.66578 10.9186L4.83114 11.4978C4.59234 11.5339 4.50858 11.8353 4.69455 11.9894L7.48854 14.3042C8.35129 15.019 8.75696 16.1465 8.54738 17.2471L7.76474 21.3571C7.72094 21.5871 7.96239 21.7658 8.16956 21.6567L11.9845 19.648C12.8812 19.1759 13.9529 19.1759 14.8496 19.648L18.6645 21.6567C18.8717 21.7658 19.1131 21.5871 19.0693 21.3571L18.2867 17.2471C18.0771 16.1465 18.4828 15.019 19.3455 14.3042L22.1395 11.9894C22.3255 11.8353 22.2417 11.5339 22.0029 11.4978L18.1683 10.9186C17.2457 10.7793 16.4363 10.2285 15.968 9.42152L13.6588 5.44185Z" fill="#FFCF53"/>
</svg>
