<svg width="17" height="17" viewBox="0 0 17 17" fill="none" xmlns="http://www.w3.org/2000/svg">
<path fill-rule="evenodd" clip-rule="evenodd" d="M4.92465 4.92468V4.84325C4.92465 3.37079 5.92154 2.08512 7.34762 1.71842C7.87473 1.58287 8.42756 1.58287 8.95468 1.71842C10.3807 2.08512 11.3776 3.37079 11.3776 4.84325V4.92468H12.3973C12.7853 4.92468 13.1147 5.20928 13.1709 5.59323L13.3195 6.607C13.6119 8.60298 13.6119 10.6309 13.3195 12.6269C13.1782 13.5908 12.401 14.336 11.432 14.4365L11.0048 14.4808C9.10745 14.6775 7.19484 14.6775 5.29748 14.4808L4.87031 14.4365C3.90132 14.336 3.12404 13.5908 2.98281 12.6269C2.69036 10.6309 2.69036 8.60298 2.98281 6.60699L3.13135 5.59323C3.18761 5.20928 3.51694 4.92468 3.90499 4.92468H4.92465ZM7.60136 2.70521C7.96202 2.61247 8.34027 2.61247 8.70093 2.70521C9.67666 2.95611 10.3587 3.83578 10.3587 4.84325V4.92468H5.94354V4.84325C5.94354 3.83578 6.62563 2.95611 7.60136 2.70521ZM4.92465 5.94357V7.47191C4.92465 7.75327 5.15274 7.98136 5.4341 7.98136C5.71546 7.98136 5.94354 7.75327 5.94354 7.47191V5.94357H10.3587V7.47191C10.3587 7.75327 10.5868 7.98136 10.8682 7.98136C11.1496 7.98136 11.3776 7.75327 11.3776 7.47191V5.94357H12.1925L12.3113 6.75471C12.5894 8.65274 12.5894 10.5812 12.3113 12.4792C12.2377 12.9819 11.8323 13.3706 11.3269 13.423L10.8997 13.4673C9.07223 13.6568 7.23006 13.6568 5.40258 13.4673L4.97541 13.423C4.47001 13.3706 4.0646 12.9819 3.99094 12.4792C3.71284 10.5812 3.71284 8.65274 3.99094 6.75471L4.10979 5.94357H4.92465Z" fill="black"/>
</svg>
