<svg width="25" height="26" viewBox="0 0 25 26" fill="none" xmlns="http://www.w3.org/2000/svg">
<path fill-rule="evenodd" clip-rule="evenodd" d="M14.9844 16.7329C12.2237 19.0324 8.18264 18.8514 5.62349 16.1899C2.87762 13.3342 2.87762 8.70419 5.62349 5.84848C8.36937 2.99278 12.8213 2.99278 15.5672 5.84848C18.1263 8.51 18.3004 12.7127 16.0893 15.5838L21.4597 21.1691C21.7648 21.4864 21.7648 22.0008 21.4597 22.3181C21.1546 22.6355 20.66 22.6355 20.3549 22.3181L14.9844 16.7329ZM6.72835 15.0409C4.59267 12.8198 4.59267 9.21864 6.72835 6.99753C8.86403 4.77643 12.3266 4.77643 14.4623 6.99753C16.5964 9.21701 16.598 12.8145 14.467 15.036C14.4654 15.0376 14.4639 15.0392 14.4623 15.0408C14.4607 15.0425 14.4592 15.0441 14.4576 15.0458C12.3216 17.262 8.86246 17.2604 6.72835 15.0409Z" fill="white"/>
</svg>
