<svg width="32" height="33" viewBox="0 0 32 33" fill="none" xmlns="http://www.w3.org/2000/svg">
<g clip-path="url(#clip0_1_1416)">
<path fill-rule="evenodd" clip-rule="evenodd" d="M17.4583 6.76042V6.61556C17.4583 3.99621 19.1705 1.70915 21.6199 1.05682C22.5252 0.815705 23.4748 0.815705 24.3801 1.05682C26.8295 1.70915 28.5417 3.99621 28.5417 6.61557V6.76042H30.293C30.9595 6.76042 31.5251 7.26669 31.6217 7.94969L31.8769 9.75307C32.3792 13.3037 32.3792 16.9112 31.8769 20.4618C31.6343 22.1765 30.2993 23.5021 28.635 23.6809L27.9013 23.7597C24.6425 24.1097 21.3575 24.1097 18.0987 23.7597L17.365 23.6809C15.7007 23.5021 14.3657 22.1765 14.1231 20.4618C13.6208 16.9112 13.6208 13.3037 14.1231 9.75307L14.3782 7.94969C14.4749 7.26668 15.0405 6.76042 15.707 6.76042H17.4583ZM22.0557 2.81222C22.6752 2.64724 23.3248 2.64724 23.9443 2.81222C25.6202 3.25854 26.7917 4.82338 26.7917 6.61557V6.76042H19.2083V6.61556C19.2083 4.82337 20.3798 3.25854 22.0557 2.81222ZM17.4583 8.57292V11.2917C17.4583 11.7922 17.8501 12.1979 18.3333 12.1979C18.8166 12.1979 19.2083 11.7922 19.2083 11.2917V8.57292H26.7917V11.2917C26.7917 11.7922 27.1834 12.1979 27.6667 12.1979C28.1499 12.1979 28.5417 11.7922 28.5417 11.2917V8.57292H29.9412L30.1454 10.0158C30.623 13.3922 30.623 16.8227 30.1454 20.1991C30.0188 21.0934 29.3225 21.7848 28.4545 21.878L27.7208 21.9568C24.582 22.294 21.418 22.294 18.2792 21.9568L17.5455 21.878C16.6775 21.7848 15.9812 21.0934 15.8546 20.1991C15.377 16.8227 15.377 13.3922 15.8546 10.0158L16.0588 8.57292H17.4583Z" fill="white"/>
</g>
<defs>
<clipPath id="clip0_1_1416">
<rect width="32" height="33" fill="white"/>
</clipPath>
</defs>
</svg>
