<svg width="14" height="16" viewBox="0 0 14 16" fill="none" xmlns="http://www.w3.org/2000/svg">
<path d="M11.9416 3.68524C11.8411 3.6333 11.7432 3.57634 11.6485 3.5146C11.3726 3.3323 11.1198 3.11749 10.8953 2.87482C10.3336 2.23224 10.1238 1.58036 10.0465 1.12396H10.0496C9.98508 0.745114 10.0118 0.5 10.0158 0.5H7.45749V10.3908C7.45749 10.5236 7.45749 10.6549 7.45191 10.7846C7.45191 10.8007 7.45036 10.8156 7.44942 10.833C7.44942 10.8401 7.44942 10.8476 7.44788 10.855V10.8606C7.42091 11.2155 7.30713 11.5582 7.11654 11.8589C6.92596 12.1595 6.66442 12.4087 6.35492 12.5845C6.03236 12.768 5.66752 12.8642 5.2964 12.8637C4.10445 12.8637 3.13842 11.8919 3.13842 10.6918C3.13842 9.49167 4.10445 8.5199 5.2964 8.5199C5.52204 8.51969 5.74628 8.55518 5.96081 8.62508L5.96391 6.02066C5.31266 5.93655 4.65104 5.9883 4.02078 6.17265C3.39053 6.35698 2.80533 6.66993 2.3021 7.09172C1.86115 7.47478 1.49044 7.93184 1.20666 8.44233C1.09867 8.62849 0.691211 9.37656 0.641871 10.5907C0.610838 11.2797 0.817824 11.9937 0.916507 12.2888V12.295C0.978571 12.4687 1.21907 13.0617 1.61101 13.5615C1.92705 13.9625 2.30045 14.3146 2.71918 14.6068V14.6006L2.72538 14.6068C3.96388 15.4482 5.33706 15.393 5.33706 15.393C5.57477 15.3834 6.37106 15.393 7.27533 14.9646C8.2783 14.4896 8.84929 13.7818 8.84929 13.7818C9.21407 13.3589 9.50413 12.877 9.70702 12.3567C9.93853 11.7483 10.0158 11.0185 10.0158 10.7269V5.47955C10.0468 5.49817 10.4602 5.77152 10.4602 5.77152C10.4602 5.77152 11.0557 6.15315 11.9848 6.40168C12.6514 6.57853 13.5494 6.61576 13.5494 6.61576V4.0765C13.2347 4.11063 12.5958 4.01135 11.9416 3.68524Z" fill="white" fill-opacity="0.9"/>
</svg>
