<svg width="14" height="14" viewBox="0 0 14 14" fill="none" xmlns="http://www.w3.org/2000/svg">
<path fill-rule="evenodd" clip-rule="evenodd" d="M0.232514 1.62003C0.232514 1.32298 0.350516 1.0381 0.560562 0.828049C0.770608 0.618003 1.05549 0.500002 1.35254 0.500002H12.5175C12.6647 0.499761 12.8105 0.528558 12.9466 0.584744C13.0826 0.640931 13.2063 0.723403 13.3104 0.827439C13.4146 0.931475 13.4972 1.05504 13.5535 1.19104C13.6098 1.32704 13.6388 1.47282 13.6387 1.62003V12.7849C13.6389 12.9322 13.61 13.078 13.5537 13.2141C13.4975 13.3501 13.415 13.4738 13.3109 13.5779C13.2068 13.6821 13.0832 13.7647 12.9472 13.821C12.8111 13.8773 12.6653 13.9063 12.5181 13.9062H1.35254C1.20541 13.9062 1.05971 13.8772 0.923784 13.8209C0.787857 13.7645 0.664359 13.682 0.560346 13.5779C0.456334 13.4738 0.373846 13.3503 0.317596 13.2143C0.261345 13.0784 0.232434 12.9327 0.232514 12.7855V1.62003ZM5.53893 5.61143H7.35426V6.52305C7.61629 5.99899 8.2866 5.52734 9.29389 5.52734C11.225 5.52734 11.6826 6.57119 11.6826 8.48645V12.0342H9.72838V8.92276C9.72838 7.83199 9.46635 7.21652 8.80091 7.21652C7.87771 7.21652 7.4938 7.88013 7.4938 8.92276V12.0342H5.53893V5.61143ZM2.18738 11.9507H4.14225V5.52734H2.18738V11.9507ZM4.42195 3.43231C4.42564 3.59969 4.39585 3.76612 4.33435 3.92183C4.27284 4.07754 4.18085 4.2194 4.06378 4.33908C3.94671 4.45876 3.80691 4.55385 3.65259 4.61876C3.49827 4.68368 3.33254 4.71712 3.16512 4.71712C2.9977 4.71712 2.83197 4.68368 2.67765 4.61876C2.52333 4.55385 2.38353 4.45876 2.26646 4.33908C2.14938 4.2194 2.0574 4.07754 1.99589 3.92183C1.93439 3.76612 1.9046 3.59969 1.90829 3.43231C1.91552 3.10377 2.05111 2.79112 2.28603 2.56132C2.52094 2.33153 2.8365 2.20285 3.16512 2.20285C3.49374 2.20285 3.8093 2.33153 4.04421 2.56132C4.27912 2.79112 4.41472 3.10377 4.42195 3.43231Z" fill="white" fill-opacity="0.9"/>
</svg>
