<svg width="15" height="15" viewBox="0 0 15 15" fill="none" xmlns="http://www.w3.org/2000/svg">
<path d="M8.40136 7.37823L6.76366 6.61406C6.62074 6.54771 6.50334 6.62208 6.50334 6.78031V8.21969C6.50334 8.37792 6.62074 8.45229 6.76366 8.38594L8.40064 7.62177C8.54428 7.55469 8.54428 7.44531 8.40136 7.37823ZM7.23251 0.5C3.36647 0.5 0.232513 3.63396 0.232513 7.5C0.232513 11.366 3.36647 14.5 7.23251 14.5C11.0985 14.5 14.2325 11.366 14.2325 7.5C14.2325 3.63396 11.0985 0.5 7.23251 0.5ZM7.23251 10.3438C3.64939 10.3438 3.58668 10.0207 3.58668 7.5C3.58668 4.97927 3.64939 4.65625 7.23251 4.65625C10.8156 4.65625 10.8783 4.97927 10.8783 7.5C10.8783 10.0207 10.8156 10.3438 7.23251 10.3438Z" fill="white" fill-opacity="0.9"/>
</svg>
