<svg width="15" height="15" viewBox="0 0 15 15" fill="none" xmlns="http://www.w3.org/2000/svg">
<path d="M7.23064 5.16567C5.94528 5.16567 4.89635 6.21464 4.89635 7.5C4.89635 8.78536 5.94528 9.83432 7.23064 9.83432C8.51597 9.83432 9.56491 8.78536 9.56491 7.5C9.56491 6.21464 8.51597 5.16567 7.23064 5.16567ZM14.2317 7.5C14.2317 6.53335 14.2404 5.57545 14.1862 4.61055C14.1319 3.48979 13.8762 2.49512 13.0567 1.67557C12.2354 0.854259 11.2425 0.600338 10.1218 0.546052C9.15514 0.491765 8.19726 0.500521 7.23238 0.500521C6.26574 0.500521 5.30786 0.491765 4.34298 0.546052C3.22225 0.600338 2.22759 0.856011 1.40806 1.67557C0.586767 2.49687 0.33285 3.48979 0.278564 4.61055C0.224279 5.5772 0.233034 6.5351 0.233034 7.5C0.233034 8.4649 0.224279 9.42455 0.278564 10.3894C0.33285 11.5102 0.588518 12.5049 1.40806 13.3245C2.22934 14.1457 3.22225 14.3997 4.34298 14.4539C5.30963 14.5083 6.26749 14.4995 7.23238 14.4995C8.19901 14.4995 9.15689 14.5083 10.1218 14.4539C11.2425 14.3997 12.2372 14.1439 13.0567 13.3245C13.878 12.5031 14.1319 11.5102 14.1862 10.3894C14.2422 9.42455 14.2317 8.46665 14.2317 7.5ZM7.23064 11.0917C5.24308 11.0917 3.63902 9.48759 3.63902 7.5C3.63902 5.51241 5.24308 3.90832 7.23064 3.90832C9.21819 3.90832 10.8222 5.51241 10.8222 7.5C10.8222 9.48759 9.21819 11.0917 7.23064 11.0917ZM10.9693 4.60004C10.5053 4.60004 10.1305 4.22528 10.1305 3.76122C10.1305 3.29716 10.5053 2.92241 10.9693 2.92241C11.4334 2.92241 11.8081 3.29716 11.8081 3.76122C11.8083 3.87142 11.7867 3.98055 11.7446 4.08239C11.7025 4.18422 11.6407 4.27674 11.5628 4.35467C11.4848 4.43259 11.3923 4.49436 11.2905 4.53647C11.1887 4.57857 11.0795 4.60018 10.9693 4.60004Z" fill="white" fill-opacity="0.9"/>
</svg>
