<svg width="16" height="16" viewBox="0 0 16 16" fill="none" xmlns="http://www.w3.org/2000/svg">
<path d="M14.5547 3.39799C14.6963 3.60685 14.8268 3.82331 14.9478 4.04408C15.0684 4.26719 15.1774 4.49417 15.2755 4.7264C15.3737 4.95863 15.4597 5.19707 15.5354 5.43843C15.6102 5.67839 15.6719 5.92317 15.7233 6.17087C15.7746 6.41856 15.8124 6.66734 15.8385 6.91998C15.8651 7.17027 15.879 7.42304 15.8808 7.67594C15.8816 7.92745 15.8711 8.18048 15.8476 8.43225C15.824 8.68402 15.7873 8.93453 15.7403 9.18187C15.6918 9.43016 15.6317 9.67625 15.5603 9.91778C15.4884 10.1616 15.4043 10.3996 15.3076 10.6339C15.2131 10.8687 15.1065 11.0975 14.9886 11.3217C14.8698 11.5446 14.7411 11.762 14.6025 11.9738C14.4616 12.1852 14.3136 12.3892 14.1534 12.5873C13.9937 12.783 13.8255 12.9723 13.6483 13.1514C13.4697 13.3314 13.2832 13.5026 13.0886 13.6651C12.894 13.8275 12.6918 13.9788 12.4817 14.1213C12.273 14.2629 12.0562 14.3956 11.8347 14.5153C11.6118 14.636 11.3837 14.746 11.1503 14.8452C10.917 14.9445 10.6789 15.0307 10.438 15.1067C10.1961 15.1813 9.95041 15.2442 9.70325 15.2959C9.45515 15.3463 9.20559 15.3854 8.95457 15.4134C8.7026 15.4399 8.45057 15.4543 8.19614 15.4561C7.94405 15.4583 7.6919 15.4484 7.43874 15.4249C7.18653 15.4028 6.93706 15.3667 6.68848 15.3198C6.43989 15.2729 6.19499 15.2133 5.95237 15.1421C5.70975 15.0708 5.47082 14.9869 5.23746 14.8931C5.00315 14.7979 4.77348 14.6914 4.54938 14.575C4.32573 14.4564 4.1086 14.3292 3.89751 14.1898C3.68501 14.0513 3.48183 13.9025 3.28657 13.7442C3.08897 13.5855 2.90068 13.4164 2.72126 13.2393C2.54044 13.0631 2.36988 12.878 2.20864 12.6824C2.04694 12.4892 1.89551 12.287 1.75388 12.0781C1.61225 11.8692 1.48043 11.6537 1.36077 11.432C1.23876 11.2098 1.12984 10.9829 1.03307 10.7497C0.933966 10.5161 0.847496 10.28 0.773178 10.0377C0.698403 9.7977 0.63438 9.55247 0.585341 9.30522C0.533957 9.05753 0.495213 8.80736 0.468651 8.55706C0.44349 8.30582 0.429567 8.05305 0.427828 7.80015C0.426088 7.54725 0.437475 7.29561 0.461045 7.04384C0.484614 6.79207 0.51991 6.54251 0.568332 6.29422C0.61581 6.04453 0.675501 5.80079 0.747375 5.55692C0.820194 5.31444 0.90428 5.07652 0.998692 4.84176C1.09545 4.60744 1.20207 4.37862 1.31997 4.15436C1.43786 3.9301 1.56657 3.71274 1.70609 3.50227C1.84466 3.29042 1.99499 3.08685 2.15379 2.88973C2.31353 2.69401 2.48174 2.50474 2.66031 2.32471C2.83887 2.14468 3.02544 1.97345 3.22003 1.81101C3.41321 1.64953 3.61675 1.49728 3.8255 1.35573C4.03565 1.21323 4.251 1.08143 4.47391 0.960767C4.69682 0.840104 4.92494 0.730138 5.15827 0.630868C5.3902 0.532549 5.62827 0.446318 5.86921 0.370342C6.1125 0.294809 6.35585 0.231429 6.60535 0.180139C6.8525 0.128408 7.10206 0.0892722 7.35403 0.0627332C7.606 0.0361948 7.85802 0.0218107 8.11011 0.0195808C8.36455 0.0177929 8.6167 0.0277182 8.86891 0.0497972C9.12066 0.0742182 9.37059 0.10801 9.62012 0.156298C9.86731 0.204143 10.1136 0.26275 10.3562 0.33402C10.5988 0.405289 10.8368 0.487828 11.0711 0.583029C11.3054 0.67823 11.5351 0.784701 11.7578 0.901999C11.9819 1.01835 12.2 1.14691 12.4111 1.28631C12.6212 1.42431 12.8268 1.57358 13.022 1.73185C13.2182 1.8915 13.407 2.05825 13.5873 2.23678C13.7668 2.41391 13.9373 2.59909 14.1 2.7937C14.2603 2.98787 14.4131 3.18913 14.5547 3.39799Z" fill="white"/>
</svg>
